<svg width="72" height="72" viewBox="0 0 72 72" fill="none" xmlns="http://www.w3.org/2000/svg">
<g id="Black and White Collection 12">
<path id="Vector" d="M64.6058 28.6726C63.8337 28.4964 63.0342 28.4757 62.254 28.612C61.4739 28.7482 60.7287 29.0387 60.062 29.4663C57.4819 31.0727 54.3709 31.5925 51.4087 30.9122C48.4465 30.2318 45.8741 28.4066 44.2535 25.8354C43.6261 24.8426 42.7194 24.0573 41.6472 23.5781C40.575 23.099 39.3851 22.9472 38.2271 23.1421C37.0689 23.337 35.9942 23.8698 35.1378 24.6734C34.2815 25.4771 33.6817 26.5158 33.4138 27.6593C33.1459 28.8027 33.2218 29.9998 33.632 31.1002C34.0423 32.2007 34.7685 33.1553 35.7195 33.8443C36.6705 34.5334 37.804 34.9261 38.9775 34.973C40.1509 35.02 41.3121 34.7192 42.3151 34.1084C43.5945 33.2999 45.0209 32.752 46.5125 32.4958C48.0041 32.2397 49.5316 32.2805 51.0073 32.6158C52.4831 32.9512 53.8782 33.5745 55.1126 34.4501C56.3471 35.3256 57.3966 36.4362 58.201 37.7181C58.7321 38.532 59.4541 39.2037 60.3043 39.6745C61.1544 40.1453 62.1068 40.4011 63.0785 40.4196C64.0501 40.438 65.0115 40.2186 65.8789 39.7803C66.7463 39.342 67.4932 38.6983 68.0548 37.9052C68.6165 37.112 68.9756 36.1936 69.1009 35.2299C69.2262 34.2661 69.1139 33.2865 68.7738 32.3761C68.4337 31.4657 67.8761 30.6524 67.1497 30.0069C66.4232 29.3613 65.5499 28.9033 64.6058 28.6726Z" fill="url(#paint0_linear_45_6)"/>
<path id="Vector_2" d="M34.021 49.903C35.1604 49.5681 36.1737 48.9005 36.931 47.9857C37.6883 47.0709 38.155 45.9507 38.2712 44.7688C38.3874 43.5869 38.1479 42.3973 37.5833 41.3525C37.0187 40.3077 36.1548 39.4555 35.1025 38.9051C33.7625 38.2014 32.5746 37.2402 31.6069 36.0765C30.6392 34.9128 29.9106 33.5696 29.4631 32.1238C29.0155 30.678 28.8577 29.1581 28.9987 27.6511C29.1397 26.1442 29.5768 24.68 30.2848 23.3424C30.8296 22.3006 31.054 21.121 30.93 19.952C30.8059 18.7829 30.3388 17.6767 29.5875 16.7725C28.8362 15.8683 27.8342 15.2064 26.7077 14.8704C25.5811 14.5343 24.3803 14.539 23.2565 14.8837C22.1325 15.2285 21.1357 15.898 20.3915 16.808C19.6472 17.7179 19.1886 18.8277 19.0736 19.9977C18.9585 21.1677 19.1921 22.3455 19.7449 23.3831C20.2977 24.4206 21.1451 25.2714 22.1803 25.8285C24.8632 27.2562 26.8713 29.6888 27.7651 32.5936C28.6587 35.4985 28.3653 38.639 26.9488 41.328C26.3735 42.3733 26.1252 43.5673 26.2361 44.7553C26.3469 45.9434 26.8119 47.0708 27.5707 47.9916C28.3297 48.9123 29.3475 49.5841 30.4925 49.9198C31.6375 50.2556 32.8569 50.2399 33.9928 49.8749L34.021 49.903Z" fill="url(#paint1_linear_45_6)"/>
<path id="Vector_3" d="M44.176 38.3712C43.6354 38.9511 43.2161 39.633 42.9423 40.3771C42.6685 41.1212 42.546 41.9123 42.5819 42.7044C42.6839 45.7401 41.5799 48.6928 39.5111 50.9169C37.4424 53.141 34.5771 54.4555 31.5419 54.573C30.7524 54.5981 29.9758 54.7799 29.2572 55.1079C28.5387 55.4358 27.8925 55.9033 27.3562 56.4832C26.7017 57.2026 26.2332 58.0713 25.9915 59.0133C25.7499 59.9555 25.7426 60.9423 25.9701 61.8879C26.1976 62.8335 26.6531 63.709 27.2969 64.4381C27.9407 65.1671 28.753 65.7275 29.6632 66.0704C30.5733 66.4132 31.5535 66.5281 32.5183 66.405C33.4831 66.2818 34.403 65.9244 35.1978 65.364C35.9927 64.8035 36.6383 64.057 37.0783 63.1897C37.5183 62.3223 37.7393 61.3604 37.722 60.388C37.6619 58.875 37.9009 57.365 38.4253 55.9446C38.9497 54.5241 39.7492 53.221 40.778 52.11C41.8068 50.9991 43.0447 50.1019 44.4207 49.47C45.7969 48.8383 47.284 48.4841 48.7971 48.428C49.7695 48.3787 50.715 48.0919 51.5509 47.5927C52.3869 47.0935 53.0877 46.3971 53.5922 45.5644C54.0968 44.7317 54.3895 43.7881 54.445 42.816C54.5005 41.844 54.3169 40.8731 53.9104 39.9884C53.5038 39.1037 52.8868 38.3321 52.1131 37.741C51.3394 37.15 50.4327 36.7575 49.4721 36.598C48.5117 36.4384 47.5268 36.5166 46.6035 36.8257C45.6803 37.1349 44.8468 37.6654 44.176 38.3712Z" fill="url(#paint2_linear_45_6)"/>
</g>
<defs>
<linearGradient id="paint0_linear_45_6" x1="39.6353" y1="20.1717" x2="59.8239" y2="50.5702" gradientUnits="userSpaceOnUse">
<stop offset="0.10245" stop-color="#F5CB5C"/>
<stop offset="1" stop-color="#333533"/>
</linearGradient>
<linearGradient id="paint1_linear_45_6" x1="16.6765" y1="20.481" x2="36.855" y2="52.1401" gradientUnits="userSpaceOnUse">
<stop offset="0.10245" stop-color="#F5CB5C"/>
<stop offset="1" stop-color="#333533"/>
</linearGradient>
<linearGradient id="paint2_linear_45_6" x1="35.5945" y1="46.95" x2="45.3257" y2="57.7977" gradientUnits="userSpaceOnUse">
<stop offset="0.10245" stop-color="#F5CB5C"/>
<stop offset="1" stop-color="#333533"/>
</linearGradient>
</defs>
</svg>
