<svg width="72" height="73" viewBox="0 0 72 73" fill="none" xmlns="http://www.w3.org/2000/svg">
<path d="M64.6058 29.1258C63.8337 28.9495 63.0342 28.9289 62.254 29.0651C61.4739 29.2014 60.7287 29.4918 60.062 29.9194C57.4819 31.5258 54.3709 32.0456 51.4087 31.3653C48.4465 30.6849 45.8741 28.8597 44.2535 26.2886C43.6261 25.2958 42.7194 24.5105 41.6472 24.0313C40.575 23.5521 39.3851 23.4004 38.2271 23.5952C37.0689 23.7901 35.9942 24.3229 35.1378 25.1266C34.2815 25.9302 33.6817 26.969 33.4138 28.1124C33.1459 29.2559 33.2218 30.4529 33.632 31.5534C34.0423 32.6538 34.7685 33.6085 35.7195 34.2975C36.6705 34.9865 37.804 35.3792 38.9775 35.4261C40.1509 35.4732 41.3121 35.1724 42.3151 34.5615C43.5945 33.7531 45.0209 33.2051 46.5125 32.949C48.0041 32.6928 49.5316 32.7336 51.0073 33.0689C52.4831 33.4043 53.8782 34.0276 55.1126 34.9032C56.3471 35.7787 57.3966 36.8893 58.201 38.1712C58.7321 38.9851 59.4541 39.6568 60.3043 40.1276C61.1544 40.5985 62.1068 40.8542 63.0785 40.8727C64.0501 40.8911 65.0115 40.6717 65.8789 40.2334C66.7463 39.7952 67.4932 39.1514 68.0549 38.3583C68.6165 37.5652 68.9756 36.6467 69.1009 35.683C69.2262 34.7193 69.1139 33.7396 68.7738 32.8292C68.4337 31.9189 67.8761 31.1055 67.1497 30.46C66.4232 29.8145 65.5499 29.3564 64.6058 29.1258Z" fill="url(#paint0_linear_17_378)"/>
<path d="M34.021 50.3561C35.1604 50.0212 36.1737 49.3536 36.931 48.4388C37.6883 47.524 38.155 46.4038 38.2712 45.222C38.3874 44.04 38.1479 42.8504 37.5833 41.8057C37.0187 40.7608 36.1548 39.9086 35.1025 39.3583C33.7625 38.6545 32.5746 37.6933 31.6069 36.5296C30.6392 35.3659 29.9106 34.0227 29.4631 32.5769C29.0155 31.1311 28.8577 29.6112 28.9987 28.1043C29.1397 26.5973 29.5768 25.1331 30.2848 23.7955C30.8296 22.7537 31.054 21.5741 30.93 20.4051C30.8059 19.2361 30.3388 18.1298 29.5875 17.2256C28.8362 16.3214 27.8342 15.6596 26.7077 15.3235C25.5811 14.9874 24.3803 14.9921 23.2565 15.3368C22.1325 15.6817 21.1357 16.3511 20.3915 17.2611C19.6472 18.1711 19.1886 19.2808 19.0736 20.4509C18.9585 21.6208 19.1921 22.7987 19.7449 23.8362C20.2977 24.8737 21.1451 25.7245 22.1803 26.2816C24.8632 27.7093 26.8713 30.1419 27.7651 33.0467C28.6587 35.9516 28.3653 39.0921 26.9489 41.7811C26.3735 42.8264 26.1252 44.0204 26.2361 45.2084C26.3469 46.3965 26.8119 47.524 27.5707 48.4447C28.3297 49.3655 29.3475 50.0372 30.4925 50.373C31.6375 50.7088 32.8569 50.6931 33.9928 50.328L34.021 50.3561Z" fill="url(#paint1_linear_17_378)"/>
<path d="M44.176 38.8243C43.6354 39.4042 43.2161 40.0862 42.9423 40.8302C42.6685 41.5743 42.546 42.3654 42.5819 43.1575C42.6839 46.1932 41.5799 49.1459 39.5111 51.37C37.4424 53.5941 34.5771 54.9086 31.5419 55.0261C30.7524 55.0513 29.9758 55.2331 29.2572 55.561C28.5387 55.8889 27.8925 56.3564 27.3562 56.9363C26.7017 57.6557 26.2332 58.5244 25.9915 59.4665C25.7499 60.4086 25.7426 61.3955 25.9701 62.341C26.1976 63.2866 26.6532 64.1621 27.2969 64.8912C27.9407 65.6202 28.753 66.1806 29.6632 66.5235C30.5733 66.8663 31.5535 66.9812 32.5183 66.8581C33.4831 66.735 34.403 66.3776 35.1978 65.8171C35.9927 65.2566 36.6383 64.5101 37.0783 63.6428C37.5183 62.7754 37.7393 61.8135 37.722 60.8411C37.6619 59.3281 37.9009 57.8181 38.4253 56.3977C38.9497 54.9772 39.7492 53.6741 40.778 52.5632C41.8068 51.4522 43.0447 50.555 44.4207 49.9232C45.7969 49.2914 47.284 48.9372 48.7971 48.8811C49.7695 48.8319 50.715 48.5451 51.5509 48.0458C52.3869 47.5466 53.0877 46.8502 53.5922 46.0175C54.0968 45.1848 54.3895 44.2412 54.445 43.2692C54.5005 42.2971 54.3169 41.3262 53.9104 40.4415C53.5038 39.5568 52.8868 38.7852 52.1131 38.1941C51.3394 37.6031 50.4327 37.2107 49.4721 37.0511C48.5117 36.8915 47.5268 36.9697 46.6035 37.2788C45.6803 37.588 44.8468 38.1186 44.176 38.8243Z" fill="url(#paint2_linear_17_378)"/>
<defs>
<linearGradient id="paint0_linear_17_378" x1="39.6353" y1="20.6248" x2="62.772" y2="43.7616" gradientUnits="userSpaceOnUse">
<stop stop-color="#E8EDDF"/>
<stop offset="1" stop-color="#F5CB5C"/>
</linearGradient>
<linearGradient id="paint1_linear_17_378" x1="16.6765" y1="20.9341" x2="40.5747" y2="44.8323" gradientUnits="userSpaceOnUse">
<stop stop-color="#E8EDDF"/>
<stop offset="1" stop-color="#F5CB5C"/>
</linearGradient>
<linearGradient id="paint2_linear_17_378" x1="35.5945" y1="47.4031" x2="44.6648" y2="56.4734" gradientUnits="userSpaceOnUse">
<stop stop-color="#E8EDDF"/>
<stop offset="1" stop-color="#F5CB5C"/>
</linearGradient>
</defs>
</svg>
